<svg xmlns="http://www.w3.org/2000/svg" viewBox="0 0 1280 640" role="img" aria-labelledby="title desc"><title id="title">Timestamp social preview</title><desc id="desc">Immutable date, time, interval, and range helpers.</desc><defs><linearGradient id="bg" x1="0" x2="1" y1="0" y2="1"><stop offset="0" stop-color="#111322"/><stop offset=".52" stop-color="#273158"/><stop offset="1" stop-color="#512a2b"/></linearGradient><radialGradient id="glowA" cx="0" cy="0" r="1" gradientTransform="translate(362 246) rotate(42) scale(500 286)"><stop offset="0" stop-color="#ff705c" stop-opacity=".34"/><stop offset=".52" stop-color="#ff705c" stop-opacity=".08"/><stop offset="1" stop-color="#ff705c" stop-opacity="0"/></radialGradient><radialGradient id="glowB" cx="0" cy="0" r="1" gradientTransform="translate(1040 132) rotate(124) scale(430 380)"><stop offset="0" stop-color="#7f8cff" stop-opacity=".3"/><stop offset=".58" stop-color="#7f8cff" stop-opacity=".08"/><stop offset="1" stop-color="#7f8cff" stop-opacity="0"/></radialGradient><pattern id="grid" width="64" height="64" patternUnits="userSpaceOnUse"><path d="M64 0H0v64" fill="none" stroke="#c5eaff" stroke-opacity=".055"/></pattern><filter id="softShadow" x="-30%" y="-30%" width="160%" height="160%"><feDropShadow dx="0" dy="22" stdDeviation="20" flood-color="#000814" flood-opacity=".5"/></filter></defs><rect width="1280" height="640" fill="url(#bg)"/><rect width="1280" height="640" fill="url(#grid)"/><rect width="1280" height="640" fill="url(#glowA)"/><rect width="1280" height="640" fill="url(#glowB)"/><circle cx="1120" cy="112" r="88" fill="#cfe8ff" opacity=".055"/><circle cx="116" cy="518" r="118" fill="#ff705c" opacity=".08"/><circle cx="1092" cy="503" r="156" fill="#ffffff" opacity=".026"/><g filter="url(#softShadow)"><rect x="62" y="82" width="356" height="356" rx="56" fill="#031321" opacity=".9"/><rect x="76" y="96" width="328" height="328" rx="48" fill="#eef4f2" opacity=".95"/><image href="timestamp-logo.svg" x="100" y="118" width="280" height="280" preserveAspectRatio="xMidYMid meet"/></g><g font-family="'Inter','Avenir Next','Segoe UI',Arial,sans-serif"><text x="470" y="145" fill="#ff705c" font-size="28" font-weight="800" letter-spacing="8">FRAMEWORK AGNOSTIC TIME HELPERS</text><text x="470" y="238" fill="#fff" font-size="88" font-weight="900" letter-spacing="-3">Timestamp</text><text x="475" y="302" fill="#c9d8f2" font-size="29" font-weight="750">Immutable date, time, interval, and range helpers.</text><text x="475" y="344" fill="#b9c9e8" font-size="26" font-weight="700">Parse, compare, compose, and schedule safely.</text><g font-size="24" font-weight="800" fill="#eef7ff"><g><rect x="474" y="432" width="165" height="58" rx="18" fill="#174d75" stroke="#ff705c" stroke-opacity=".46"/><text x="556.5" y="468" text-anchor="middle">Immutable</text></g>
<g><rect x="657" y="432" width="165" height="58" rx="18" fill="#174d75" stroke="#ff705c" stroke-opacity=".46"/><text x="739.5" y="468" text-anchor="middle">Intervals</text></g>
<g><rect x="840" y="432" width="126" height="58" rx="18" fill="#174d75" stroke="#ff705c" stroke-opacity=".46"/><text x="903" y="468" text-anchor="middle">Ranges</text></g>
<g><rect x="984" y="432" width="178" height="58" rx="18" fill="#174d75" stroke="#ff705c" stroke-opacity=".46"/><text x="1073" y="468" text-anchor="middle">TypeScript</text></g>
<g><rect x="1180" y="432" width="94" height="58" rx="18" fill="#174d75" stroke="#ff705c" stroke-opacity=".46"/><text x="1227" y="468" text-anchor="middle">ESM</text></g></g><path d="M474 548h674" stroke="#ff705c" stroke-width="2" stroke-opacity=".3"/><text x="474" y="598" fill="#bed0ee" font-size="23" font-weight="750">TypeScript-first timestamp utilities for apps and schedulers.</text></g></svg>
